<?xml version="1.0" encoding="UTF-8" standalone="no"?>
<!DOCTYPE svg PUBLIC "-//W3C//DTD SVG 1.1//EN"
 "http://www.w3.org/Graphics/SVG/1.1/DTD/svg11.dtd">
<!-- Generated by graphviz version 2.38.0 (20140413.2041)
 -->
<!-- Title: G Pages: 1 -->
<svg width="648pt" height="241pt"
 viewBox="0.00 0.00 648.00 241.27" xmlns="http://www.w3.org/2000/svg" xmlns:xlink="http://www.w3.org/1999/xlink">
<g id="graph0" class="graph" transform="scale(0.924394 0.924394) rotate(0) translate(4 257)">
<title>G</title>
<polygon fill="white" stroke="none" points="-4,4 -4,-257 697,-257 697,4 -4,4"/>
<g id="clust1" class="cluster"><title>cluster_carnivora</title>
<polygon fill="lightgrey" stroke="lightgrey" points="221,-11 221,-241 360,-241 360,-11 221,-11"/>
<text text-anchor="middle" x="290.5" y="-225.8" font-family="Times,serif" font-size="14.00">Carnivora</text>
</g>
<g id="clust2" class="cluster"><title>cluster_functions</title>
<polygon fill="lightgrey" stroke="lightgrey" points="237,-19 237,-148 344,-148 344,-19 237,-19"/>
<text text-anchor="middle" x="290.5" y="-132.8" font-family="Times,serif" font-size="14.00">SQL&#45;Functions</text>
</g>
<g id="clust3" class="cluster"><title>cluster_client</title>
<polygon fill="none" stroke="none" points="381,-8 381,-245 685,-245 685,-8 381,-8"/>
<text text-anchor="middle" x="533" y="-229.8" font-family="Times,serif" font-size="14.00">Client software</text>
</g>
<!-- yamsql -->
<g id="node1" class="node"><title>yamsql</title>
<polygon fill="white" stroke="white" points="352,-209.5 229,-209.5 229,-156.5 352,-156.5 352,-209.5"/>
<text text-anchor="middle" x="290.5" y="-194.3" font-family="Times,serif" font-size="14.00">Collection of tables</text>
<text text-anchor="middle" x="290.5" y="-179.3" font-family="Times,serif" font-size="14.00"> and functions</text>
<text text-anchor="middle" x="290.5" y="-164.3" font-family="Times,serif" font-size="14.00">(YamSql)</text>
</g>
<!-- server -->
<g id="node10" class="node"><title>server</title>
<polygon fill="black" stroke="black" points="92,-118 0,-118 0,-80 92,-80 92,-118"/>
<text text-anchor="middle" x="46" y="-102.8" font-family="Times,serif" font-size="14.00" fill="white">SQL&#45;Server</text>
<text text-anchor="middle" x="46" y="-87.8" font-family="Times,serif" font-size="14.00" fill="white">(PostgreSQL)</text>
</g>
<!-- yamsql&#45;&gt;server -->
<g id="edge1" class="edge"><title>yamsql&#45;&gt;server</title>
<path fill="none" stroke="black" stroke-dasharray="5,2" d="M228.692,-161.937C189.732,-148.441 139.585,-131.071 101.847,-117.999"/>
<polygon fill="black" stroke="black" points="102.639,-114.569 92.0441,-114.603 100.348,-121.183 102.639,-114.569"/>
<text text-anchor="middle" x="160.5" y="-186.8" font-family="Times,serif" font-size="14.00">Deployment using</text>
<text text-anchor="middle" x="160.5" y="-171.8" font-family="Times,serif" font-size="14.00">HamSql</text>
<text text-anchor="middle" x="160.5" y="-156.8" font-family="Times,serif" font-size="14.00">(Haskell)</text>
</g>
<!-- api_backend -->
<g id="node2" class="node"><title>api_backend</title>
<polygon fill="white" stroke="white" points="335,-117 246,-117 246,-81 335,-81 335,-117"/>
<text text-anchor="middle" x="290.5" y="-95.3" font-family="Times,serif" font-size="14.00">Backend API</text>
</g>
<!-- genconfig -->
<g id="node4" class="node"><title>genconfig</title>
<polygon fill="none" stroke="black" points="463,-120 389,-120 389,-82 463,-82 463,-120"/>
<text text-anchor="middle" x="426" y="-104.8" font-family="Times,serif" font-size="14.00">Genconfig</text>
<text text-anchor="middle" x="426" y="-89.8" font-family="Times,serif" font-size="14.00">(Python)</text>
</g>
<!-- api_backend&#45;&gt;genconfig -->
<g id="edge3" class="edge"><title>api_backend&#45;&gt;genconfig</title>
<path fill="none" stroke="black" d="M335.213,-99.6549C349.164,-99.8639 364.646,-100.096 378.771,-100.307"/>
<polygon fill="black" stroke="black" points="378.723,-103.807 388.774,-100.457 378.828,-96.8078 378.723,-103.807"/>
</g>
<!-- api_frontend -->
<g id="node3" class="node"><title>api_frontend</title>
<polygon fill="white" stroke="white" points="336,-63 245,-63 245,-27 336,-27 336,-63"/>
<text text-anchor="middle" x="290.5" y="-41.3" font-family="Times,serif" font-size="14.00">Frontend API</text>
</g>
<!-- edentata -->
<g id="node5" class="node"><title>edentata</title>
<polygon fill="none" stroke="black" points="458,-62 394,-62 394,-24 458,-24 458,-62"/>
<text text-anchor="middle" x="426" y="-46.8" font-family="Times,serif" font-size="14.00">Edentata</text>
<text text-anchor="middle" x="426" y="-31.8" font-family="Times,serif" font-size="14.00">(PHP)</text>
</g>
<!-- api_frontend&#45;&gt;edentata -->
<g id="edge5" class="edge"><title>api_frontend&#45;&gt;edentata</title>
<path fill="none" stroke="black" d="M346.749,-44.1723C359.096,-43.9873 371.984,-43.7942 383.655,-43.6194"/>
<polygon fill="black" stroke="black" points="346.271,-40.679 336.325,-44.3285 346.376,-47.6782 346.271,-40.679"/>
<polygon fill="black" stroke="black" points="384.034,-47.1142 393.98,-43.4647 383.929,-40.115 384.034,-47.1142"/>
</g>
<!-- reload -->
<g id="node6" class="node"><title>reload</title>
<polygon fill="none" stroke="black" points="632,-106 545,-106 545,-70 632,-70 632,-106"/>
<text text-anchor="middle" x="588.5" y="-84.3" font-family="Times,serif" font-size="14.00">server reload</text>
</g>
<!-- genconfig&#45;&gt;reload -->
<g id="edge7" class="edge"><title>genconfig&#45;&gt;reload</title>
<path fill="none" stroke="black" d="M463.019,-98.0825C484.113,-96.374 511.135,-94.1853 534.61,-92.284"/>
<polygon fill="black" stroke="black" points="535.082,-95.7572 544.767,-91.4612 534.517,-88.7801 535.082,-95.7572"/>
</g>
<!-- dir_depl -->
<g id="node7" class="node"><title>dir_depl</title>
<polygon fill="none" stroke="black" points="677,-160 500,-160 500,-124 677,-124 677,-160"/>
<text text-anchor="middle" x="588.5" y="-138.3" font-family="Times,serif" font-size="14.00">(home) directory deployment</text>
</g>
<!-- genconfig&#45;&gt;dir_depl -->
<g id="edge8" class="edge"><title>genconfig&#45;&gt;dir_depl</title>
<path fill="none" stroke="black" d="M463.019,-110.201C476.06,-113.532 491.366,-117.442 506.699,-121.359"/>
<polygon fill="black" stroke="black" points="506.2,-124.844 516.756,-123.928 507.933,-118.062 506.2,-124.844"/>
</g>
<!-- config -->
<g id="node8" class="node"><title>config</title>
<polygon fill="none" stroke="black" points="627.5,-214 549.5,-214 549.5,-178 627.5,-178 627.5,-214"/>
<text text-anchor="middle" x="588.5" y="-192.3" font-family="Times,serif" font-size="14.00">config files</text>
</g>
<!-- genconfig&#45;&gt;config -->
<g id="edge6" class="edge"><title>genconfig&#45;&gt;config</title>
<path fill="none" stroke="black" d="M443.169,-120.24C456.881,-135.439 477.814,-156.16 500,-169 512.061,-175.98 526.121,-181.346 539.398,-185.384"/>
<polygon fill="black" stroke="black" points="538.775,-188.846 549.351,-188.218 540.692,-182.113 538.775,-188.846"/>
</g>
<!-- html_interface -->
<g id="node9" class="node"><title>html_interface</title>
<polygon fill="none" stroke="black" points="642,-52 535,-52 535,-16 642,-16 642,-52"/>
<text text-anchor="middle" x="588.5" y="-30.3" font-family="Times,serif" font-size="14.00">HTML interface</text>
</g>
<!-- edentata&#45;&gt;html_interface -->
<g id="edge9" class="edge"><title>edentata&#45;&gt;html_interface</title>
<path fill="none" stroke="black" d="M468.468,-40.6747C485.607,-39.7136 505.853,-38.5783 524.741,-37.5192"/>
<polygon fill="black" stroke="black" points="468.115,-37.1889 458.327,-41.2433 468.507,-44.1779 468.115,-37.1889"/>
<polygon fill="black" stroke="black" points="524.979,-41.0114 534.767,-36.957 524.587,-34.0224 524.979,-41.0114"/>
</g>
<!-- server&#45;&gt;api_backend -->
<g id="edge2" class="edge"><title>server&#45;&gt;api_backend</title>
<path fill="none" stroke="black" d="M92.0441,-99C132.749,-99 192.722,-99 235.884,-99"/>
<polygon fill="black" stroke="black" points="235.922,-102.5 245.922,-99 235.922,-95.5001 235.922,-102.5"/>
</g>
<!-- server&#45;&gt;api_frontend -->
<g id="edge4" class="edge"><title>server&#45;&gt;api_frontend</title>
<path fill="none" stroke="black" d="M101.816,-86.7935C141.598,-77.9348 195.183,-66.0026 234.912,-57.1557"/>
<polygon fill="black" stroke="black" points="101.044,-83.3796 92.0441,-88.9696 102.566,-90.2122 101.044,-83.3796"/>
<polygon fill="black" stroke="black" points="235.697,-60.5667 244.697,-54.9767 234.175,-53.734 235.697,-60.5667"/>
</g>
</g>
</svg>
